<?xml version="1.0" encoding="UTF-8"?>
<!-- Generated by Pixelmator Pro 3.7 -->
<svg width="24" height="24" viewBox="0 0 24 24" xmlns="http://www.w3.org/2000/svg">
    <path id="Path" fill="none" stroke="none" d="M 0 0 L 24 0 L 24 24 L 0 24 Z"/>
    <path id="path1" fill="none" stroke="#c5f7a2" stroke-width="2" stroke-linecap="round" stroke-linejoin="round" d="M 14 3 L 14 7 C 14 7.552284 14.447715 8 15 8 L 19 8"/>
    <path id="path2" fill="none" stroke="#c5f7a2" stroke-width="2" stroke-linecap="round" stroke-linejoin="round" d="M 17 21 L 7 21 C 5.895431 21 5 20.10457 5 19 L 5 5 C 5 3.895432 5.895431 3 7 3 L 14 3 L 19 8 L 19 19 C 19 20.10457 18.10457 21 17 21 Z"/>
    <path id="path3" fill="none" stroke="#c5f7a2" stroke-width="2" stroke-linecap="round" stroke-linejoin="round" d="M 10 16 C 10 16.552284 10.447715 17 11 17 C 11.552285 17 12 16.552284 12 16 C 12 15.447715 11.552285 15 11 15 C 10.447715 15 10 15.447715 10 16"/>
    <path id="path4" fill="none" stroke="#c5f7a2" stroke-width="2" stroke-linecap="round" stroke-linejoin="round" d="M 12 16 L 12 11 L 14 12"/>
</svg>
